# xmcd
#
# Track frame offsets:
#	150
#	15133
#	24625
#	36489
#	50595
#	62438
#	73281
#	85858
#	98556
#	109048
#	120950
#	135225
#	148968
#	162519
#
# Disc length: 2296 seconds
#
# Revision: 1
# Processed by: cddbd v1.5.1PL0 Copyright (c) Steve Scherf et al.
# Submitted via: audiograbber 1.83.01
#
DISCID=b608f60e
DTITLE=De Chico's - 14 Cowboy Liedjes
DYEAR=1974
DGENRE=Country
TTITLE0=Nog één keer een Cowboy te zijn
TTITLE1=Zorgeloos (careless hands)
TTITLE2=Tennessee wals
TTITLE3=Ach, wist ik veel
TTITLE4=Stuur me je Glimlach en je Kussen
TTITLE5=Zeven dagen lang
TTITLE6=De wind heet Maria
TTITLE7=Tom Dooly
TTITLE8=Spook rijders in de lucht
TTITLE9=Heb je mij vergeten te vertellen
TTITLE10=Steeds van de regen in de drup
TTITLE11=Home on the Range
TTITLE12=Prairie maan
TTITLE13=De Spotvogel
EXTD=
EXTT0=
EXTT1=
EXTT2=
EXTT3=
EXTT4=
EXTT5=
EXTT6=
EXTT7=
EXTT8=
EXTT9=
EXTT10=
EXTT11=
EXTT12=
EXTT13=
PLAYORDER=
